# xmcd
#
# Track frame offsets: 
#        150
#        17967
#        38640
#        57797
#        73442
#        88607
#        108397
#        123350
#        138415
#        157380
#        188105
#        204845
#        218555
#        239480
#        258150
#        277337
#
# Disc length: 4030 seconds
#
# Revision: 3
# Processed by: cddbd v1.5.2PL0 Copyright (c) Steve Scherf et al.
# Submitted via: ExactAudioCopy v1.3
#
DISCID=f10fbc10
DTITLE=Various Artist - Blues Revue sampler Dec-Jan 2006
DYEAR=2006
DGENRE=Blues
TTITLE0=Jimmy "T99" Nelson - The devil's sending up a blessing to you
TTITLE1=Mark Lemhouse - Cluck old hen
TTITLE2=Dan Penn and Spooner Oldham - I'm you puppet
TTITLE3=Paul Oscher - So lonesome
TTITLE4=Duwayne Burnside and The Mississippi Mafia - Tribute
TTITLE5=Bev Conklin and Lea Gilmore - Woman be wise
TTITLE6=Carlos Guitarlos - Hole in my pocket
TTITLE7=Mary Flower - Last kind word blues
TTITLE8=The Porkroll Project - Born ready
TTITLE9=Traffic Jam - Jail house blues
TTITLE10=Bob Brozman - One steady roll
TTITLE11=JoAnne Redding - I've earned the rIght (To sing the blues)
TTITLE12=Paul Oscher - Standing at the crossroads
TTITLE13=Mike Westcott and Blues On Board - Keep the blues alive
TTITLE14=Papa Joe Grappa - Too white to sing the blues
TTITLE15=Johnny Rawls and The Rays - Show me the way
EXTD=
EXTT0=
EXTT1=
EXTT2=
EXTT3=
EXTT4=
EXTT5=
EXTT6=
EXTT7=
EXTT8=
EXTT9=
EXTT10=
EXTT11=
EXTT12=
EXTT13=
EXTT14=
EXTT15=
PLAYORDER=
